<svg width="55" height="42" viewBox="0 0 55 42" fill="none" xmlns="http://www.w3.org/2000/svg">
<g clip-path="url(#clip0_1972_727)">
<path d="M51.946 1.6709L48.9016 10.0309H30.9165L33.9545 1.6709H51.946Z" fill="#006937"/>
<path d="M20.4129 1.6709L23.4573 10.0309H5.43067L2.3895 1.6709H20.4129Z" fill="#FF6900"/>
<path d="M48.2883 11.7046L47.0712 15.0524H39.8707L39.2606 16.7264H46.461L45.2439 20.0678H38.0435L37.4333 21.7418H44.6338L43.4166 25.0896H36.2162L35.6093 26.7635H42.8097L41.5926 30.1082H34.3921L33.782 31.7821H40.9824L39.7653 35.1268H32.5681L31.9579 36.7975H39.1552L37.9381 40.139H21.7419L23.5659 35.1268H19.9657L16.8958 26.6805L22.7897 21.7449V20.0742L28.4248 16.8254L30.2872 11.7142H48.2819L48.2883 11.7046ZM29.3416 21.7386L29.9486 20.0678H27.2684L24.3709 21.7386H29.3384H29.3416Z" fill="black"/>
<path d="M54.3323 0L39.1104 41.8066H15.2187L0 0H21.5853L27.1662 15.372L32.7821 0H54.3323ZM48.9016 10.0308L51.946 1.67073H33.9545L30.9197 10.0308H48.9048H48.9016ZM47.0712 15.0526L48.2883 11.7047H30.2936L28.4312 16.8159L22.7961 20.0647V21.7355L16.9022 26.671L19.9721 35.1173H23.5723L21.7483 40.1295H37.9444L39.1616 36.788H31.9643L32.5745 35.1173H39.7717L40.9888 31.7726H33.7884L34.3985 30.0987H41.599L42.8161 26.7541H35.6156L36.2226 25.0801H43.423L44.6401 21.7323H37.4397L38.0499 20.0584H45.2503L46.4674 16.7169H39.267L39.8771 15.043H47.0776L47.0712 15.0526ZM25.7797 16.4166L24.0643 11.7047H6.04083L16.3879 40.1327H19.9657L21.1828 36.7912H18.7997L14.9312 26.1439L21.1253 20.956V19.1L25.7829 16.4166H25.7797ZM23.4573 10.0308L20.4129 1.67073H2.3895L5.43387 10.0308H23.4605H23.4573Z" fill="white"/>
<path d="M29.9486 20.0681L29.3416 21.7389H24.3741L27.2716 20.0649L29.9486 20.0681Z" fill="white"/>
<path d="M24.0643 11.7046L25.7797 16.4165L21.1253 19.0999V20.9559L14.9312 26.1438L18.7965 36.7911H21.1828L19.9657 40.1326H16.3879L6.04082 11.7046H24.0643Z" fill="black"/>
</g>
<defs>
<clipPath id="clip0_1972_727">
<rect width="54.3323" height="41.8066" fill="white"/>
</clipPath>
</defs>
</svg>
